<?xml version="1.0" encoding="UTF-8" standalone="no"?>
<!DOCTYPE svg PUBLIC "-//W3C//DTD SVG 1.1//EN" "http://www.w3.org/Graphics/SVG/1.1/DTD/svg11.dtd">
<svg width="100%" height="100%" viewBox="0 0 443 139" version="1.1" xmlns="http://www.w3.org/2000/svg" xmlns:xlink="http://www.w3.org/1999/xlink" xml:space="preserve" xmlns:serif="http://www.serif.com/" style="fill-rule:evenodd;clip-rule:evenodd;stroke-linejoin:round;stroke-miterlimit:1.41421;">
    <g transform="matrix(1.00104,0,0,0.854772,-2.59969,6.6365)">
        <rect x="-2.441" y="-13.011" width="450.816" height="171.232" style="fill:rgb(38,38,38);"/>
    </g>
    <g>
        <g transform="matrix(0.956459,0,0,0.983166,21.1803,20.7562)">
            <path d="M209.04,21.15L236.59,21.15C245.94,21.15 254.1,23.08 261.08,26.95C268.05,30.82 273.41,36.2 277.15,43.08C280.89,49.97 282.76,57.87 282.76,66.8C282.76,75.73 280.89,83.63 277.15,90.52C273.41,97.41 268.05,102.78 261.08,106.65C254.11,110.52 245.95,112.45 236.59,112.45L209.04,112.45L209.04,21.15ZM236.59,102.14C247.39,102.14 255.95,99.04 262.29,92.83C268.62,86.62 271.79,77.95 271.79,66.81C271.79,55.67 268.62,47 262.29,40.79C255.96,34.58 247.39,31.48 236.59,31.48L219.76,31.48L219.76,102.13L236.59,102.13L236.59,102.14Z" style="fill:white;fill-rule:nonzero;"/>
        </g>
        <g transform="matrix(0.956459,0,0,0.983166,21.1803,20.7562)">
            <path d="M299.46,111.7C295.72,109.83 292.83,107.26 290.79,103.98C288.75,100.71 287.73,96.99 287.73,92.82C287.73,85.93 290.32,80.56 295.51,76.69C300.69,72.82 307.24,70.89 315.15,70.89C319.06,70.89 322.69,71.32 326.05,72.17C329.41,73.02 331.98,74 333.77,75.1L333.77,71.15C333.77,66.3 332.07,62.41 328.67,59.48C325.27,56.55 320.97,55.08 315.79,55.08C312.13,55.08 308.78,55.87 305.71,57.44C302.65,59.01 300.23,61.2 298.44,64.01L290.28,57.89C292.83,53.98 296.34,50.92 300.8,48.71C305.26,46.5 310.22,45.39 315.66,45.39C324.5,45.39 331.45,47.71 336.51,52.34C341.57,56.98 344.1,63.29 344.1,71.28L344.1,112.47L333.76,112.47L333.76,103.16L333.25,103.16C331.38,106.31 328.57,108.98 324.83,111.19C321.09,113.4 316.88,114.51 312.2,114.51C307.45,114.51 303.2,113.57 299.46,111.7ZM323.43,102.14C326.57,100.27 329.08,97.76 330.95,94.62C332.82,91.48 333.76,88.03 333.76,84.29C331.72,82.93 329.21,81.82 326.24,80.97C323.26,80.12 320.12,79.69 316.8,79.69C310.85,79.69 306.36,80.92 303.35,83.39C300.33,85.86 298.82,89.05 298.82,92.95C298.82,96.52 300.18,99.41 302.9,101.62C305.62,103.83 309.06,104.94 313.23,104.94C316.89,104.94 320.29,104.01 323.43,102.14Z" style="fill:white;fill-rule:nonzero;"/>
        </g>
        <g transform="matrix(0.956459,0,0,0.983166,21.1803,20.7562)">
            <path d="M355.53,48.45L365.86,48.45L365.86,58.78L366.37,58.78C367.9,54.95 370.49,51.98 374.15,49.85C377.8,47.73 381.8,46.66 386.14,46.66C388.01,46.66 389.58,46.79 390.86,47.04L390.86,58.14C389.41,57.8 387.46,57.63 384.99,57.63C379.46,57.63 374.98,59.46 371.54,63.11C368.1,66.77 366.37,71.53 366.37,77.39L366.37,113.48L355.53,113.48L355.53,48.45ZM422.85,113.21C420.6,112.35 418.71,111.18 417.17,109.7C415.47,108.06 414.19,106.15 413.34,103.99C412.49,101.83 412.06,99.19 412.06,96.07L412.06,57.25L400.71,57.25L400.71,47.43L412.06,47.43L412.06,29.07L422.9,29.07L422.9,47.43L438.71,47.43L438.71,57.25L422.9,57.25L422.9,93.49C422.9,97.14 423.58,99.83 424.94,101.57C426.55,103.48 428.89,104.44 431.95,104.44C434.41,104.44 436.8,103.72 439.09,102.27L439.09,112.86C437.81,113.45 436.52,113.88 435.2,114.14C433.88,114.4 432.2,114.52 430.16,114.52C427.55,114.51 425.11,114.07 422.85,113.21Z" style="fill:white;fill-rule:nonzero;"/>
        </g>
        <g>
            <path d="M31.65,109.5L8.38,86.23C5.62,83.4 3.91,79.4 3.91,75.49C3.91,73.68 4.93,70.85 5.7,69.23L27.18,24.49L31.65,109.5Z" style="fill:rgb(1,87,155);fill-rule:nonzero;"/>
            <path d="M111.3,28.96L88.03,5.69C86,3.65 81.77,1.22 78.19,1.22C75.11,1.22 72.09,1.84 70.14,3.01L27.19,24.49L111.3,28.96Z" style="fill:rgb(64,196,255);fill-rule:nonzero;"/>
            <path d="M59.39,137.24L115.77,137.24L115.77,113.08L73.71,99.65L35.23,113.08L59.39,137.24Z" style="fill:rgb(64,196,255);fill-rule:nonzero;"/>
            <path d="M27.18,96.97C27.18,104.15 28.08,105.91 31.65,109.5L35.23,113.08L115.77,113.08L76.4,68.34L27.18,24.49L27.18,96.97Z" style="fill:rgb(41,182,246);fill-rule:nonzero;"/>
            <path d="M98.77,24.48L27.18,24.48L115.77,113.07L139.93,113.07L139.93,57.59L111.29,28.95C107.27,24.92 103.7,24.48 98.77,24.48Z" style="fill:rgb(1,87,155);fill-rule:nonzero;"/>
            <path d="M32.55,110.39C28.97,106.8 28.08,103.26 28.08,96.97L28.08,25.38L27.19,24.49L27.19,96.97C27.18,103.26 27.18,105 32.55,110.39L35.23,113.07L32.55,110.39Z" style="fill:white;fill-opacity:0.2;fill-rule:nonzero;"/>
            <path d="M139.04,56.7L139.04,112.18L114.88,112.18L115.77,113.08L139.93,113.08L139.93,57.59L139.04,56.7Z" style="fill:rgb(38,50,56);fill-opacity:0.2;fill-rule:nonzero;"/>
            <path d="M111.3,28.96C106.86,24.52 103.23,24.49 97.88,24.49L27.19,24.49L28.08,25.38L97.88,25.38C100.55,25.38 107.29,24.93 111.3,28.96Z" style="fill:white;fill-opacity:0.2;fill-rule:nonzero;"/>
            <path d="M139.04,56.7L111.3,28.96L88.03,5.69C86,3.65 81.77,1.22 78.19,1.22C75.11,1.22 72.09,1.84 70.14,3.01L27.19,24.49L5.71,69.23C4.94,70.86 3.92,73.69 3.92,75.49C3.92,79.4 5.64,83.39 8.39,86.23L29.83,107.52C30.34,108.15 30.94,108.79 31.65,109.5L59.38,137.23L115.75,137.23L115.75,113.07L139.91,113.07L139.91,113.01L139.91,57.59L139.04,56.7Z" style="fill:url(#_Radial1);fill-rule:nonzero;"/>
        </g>
        <g transform="matrix(1.0594,-0.0117372,0.0117372,1.0594,-98.5809,25.8283)">
            <text x="238.954px" y="28.198px" style="font-family:'CandyRoundBTNBold', 'Candy Round BTN', sans-serif;font-weight:700;font-size:64px;fill:rgb(7,144,248);">tr<tspan x="281.36px " y="28.198px ">y</tspan></text>
        </g>
    </g>
    <defs>
        <radialGradient id="_Radial1" cx="0" cy="0" r="1" gradientUnits="userSpaceOnUse" gradientTransform="matrix(68,0,0,-68,71.915,69.2272)"><stop offset="0" style="stop-color:white;stop-opacity:0.02"/><stop offset="1" style="stop-color:white;stop-opacity:0"/></radialGradient>
    </defs>
</svg>
